<svg width="74" height="72" viewBox="0 0 74 72" fill="none" xmlns="http://www.w3.org/2000/svg">
<path d="M36.914 0C16.519 0 0 16.5283 0 36.914C0 53.227 10.5759 67.0605 25.24 71.9362C27.0857 72.2838 27.7624 71.1426 27.7624 70.1613C27.7624 69.2846 27.7317 66.9621 27.7163 63.8859C17.448 66.113 15.2824 58.9333 15.2824 58.9333C13.6028 54.6728 11.1757 53.5346 11.1757 53.5346C7.83193 51.2459 11.4341 51.292 11.4341 51.292C15.1409 51.5504 17.0881 55.0942 17.0881 55.0942C20.3796 60.739 25.7291 59.1086 27.8393 58.1642C28.1716 55.7771 29.1221 54.1498 30.1772 53.227C21.9792 52.3041 13.3629 49.1295 13.3629 34.9853C13.3629 30.9555 14.7933 27.664 17.1619 25.08C16.7467 24.1479 15.5008 20.395 17.4849 15.3101C17.4849 15.3101 20.5765 14.3196 27.6363 19.0938C30.5894 18.2724 33.7271 17.8664 36.8648 17.8479C40.0025 17.8664 43.1402 18.2724 46.0933 19.0938C53.107 14.3196 56.1985 15.3101 56.1985 15.3101C58.1827 20.395 56.9368 24.1479 56.5677 25.08C58.9209 27.664 60.3514 30.9555 60.3514 34.9853C60.3514 49.1664 51.7227 52.2887 43.5093 53.1962C44.8013 54.3036 46.001 56.5677 46.001 60.0253C46.001 64.9656 45.9549 68.9339 45.9549 70.1336C45.9549 71.1026 46.6009 72.2561 48.4927 71.887C63.2614 67.0451 73.8281 53.2024 73.8281 36.914C73.8281 16.5283 57.2998 0 36.914 0Z" fill="#E6E6E7"/>
</svg>
