<svg width="72" height="72" viewBox="0 0 72 72" fill="none" xmlns="http://www.w3.org/2000/svg">
<path d="M61.341 61.356H50.679V44.649C50.679 40.665 50.598 35.538 45.123 35.538C39.564 35.538 38.715 39.873 38.715 44.355V61.356H28.053V27H38.295V31.683H38.433C39.864 28.983 43.344 26.133 48.543 26.133C59.346 26.133 61.344 33.243 61.344 42.498L61.341 61.356ZM16.011 22.299C15.1976 22.2994 14.3922 22.1394 13.6407 21.8281C12.8893 21.5169 12.2066 21.0605 11.6317 20.485C11.0569 19.9096 10.6011 19.2265 10.2906 18.4747C9.98005 17.723 9.82082 16.9174 9.822 16.104C9.82259 14.8793 10.1863 13.6824 10.8672 12.6644C11.5481 11.6465 12.5155 10.8533 13.6472 10.3852C14.7789 9.91708 16.0239 9.79506 17.2249 10.0346C18.426 10.2741 19.529 10.8643 20.3945 11.7307C21.2601 12.5971 21.8493 13.7007 22.0876 14.9019C22.3259 16.1032 22.2027 17.3481 21.7335 18.4793C21.2643 19.6106 20.4702 20.5772 19.4516 21.2571C18.433 21.937 17.2357 22.2996 16.011 22.299ZM21.357 61.356H10.665V27H21.357V61.356ZM66.675 0H5.313C2.376 0 0 2.322 0 5.187V66.813C0 69.681 2.376 72 5.313 72H66.666C69.6 72 72 69.681 72 66.813V5.187C72 2.322 69.6 0 66.666 0H66.675Z" fill="#E6E6E7"/>
</svg>
