<svg width="72" height="43" viewBox="0 0 72 43" fill="none" xmlns="http://www.w3.org/2000/svg">
<path d="M0.5 40C0.5 41.3807 1.61929 42.5 3 42.5C4.38071 42.5 5.5 41.3807 5.5 40H0.5ZM5.5 3C5.5 1.61929 4.38071 0.5 3 0.5C1.61929 0.5 0.5 1.61929 0.5 3H5.5ZM22.894 3L24.4658 1.05592C23.7167 0.450248 22.6862 0.328886 21.8169 0.743951C20.9475 1.15902 20.394 2.03665 20.394 3L22.894 3ZM22.894 40H20.394C20.394 40.9515 20.9342 41.8205 21.7873 42.2417C22.6405 42.6629 23.6589 42.5633 24.4142 41.9847L22.894 40ZM46.394 3L48.5172 1.68016C47.9279 0.732021 46.7813 0.289575 45.7077 0.596041C44.6342 0.902508 43.894 1.8836 43.894 3L46.394 3ZM43.894 40C43.894 41.3807 45.0133 42.5 46.394 42.5C47.7747 42.5 48.894 41.3807 48.894 40H43.894ZM69.394 40L67.2708 41.3198C67.8602 42.268 69.0068 42.7104 70.0803 42.404C71.1538 42.0975 71.894 41.1164 71.894 40H69.394ZM71.894 3C71.894 1.61929 70.7747 0.5 69.394 0.5C68.0133 0.5 66.894 1.61929 66.894 3H71.894ZM5.5 40V22H0.5V40H5.5ZM3 22C5.5 22 5.5 22 5.5 22C5.5 21.9999 5.5 21.9999 5.5 21.9998C5.5 21.9998 5.5 21.9997 5.5 21.9996C5.5 21.9995 5.5 21.9994 5.5 21.9993C5.5 21.9992 5.5 21.9991 5.5 21.9989C5.5 21.9988 5.5 21.9986 5.5 21.9984C5.5 21.9983 5.5 21.9981 5.5 21.9979C5.5 21.9977 5.5 21.9974 5.5 21.9972C5.5 21.997 5.5 21.9967 5.5 21.9965C5.5 21.9962 5.5 21.9959 5.5 21.9956C5.5 21.9953 5.5 21.995 5.5 21.9947C5.5 21.9944 5.5 21.9941 5.5 21.9937C5.5 21.9934 5.5 21.993 5.5 21.9926C5.5 21.9922 5.5 21.9918 5.5 21.9914C5.5 21.991 5.5 21.9906 5.5 21.9901C5.5 21.9897 5.5 21.9892 5.5 21.9887C5.5 21.9883 5.5 21.9878 5.5 21.9873C5.5 21.9868 5.5 21.9863 5.5 21.9857C5.5 21.9852 5.5 21.9846 5.5 21.9841C5.5 21.9835 5.5 21.9829 5.5 21.9823C5.5 21.9817 5.5 21.9811 5.5 21.9805C5.5 21.9799 5.5 21.9792 5.5 21.9786C5.5 21.9779 5.5 21.9772 5.5 21.9765C5.5 21.9758 5.5 21.9751 5.5 21.9744C5.5 21.9737 5.5 21.973 5.5 21.9722C5.5 21.9714 5.5 21.9707 5.5 21.9699C5.5 21.9691 5.5 21.9683 5.5 21.9675C5.5 21.9667 5.5 21.9658 5.5 21.965C5.5 21.9641 5.5 21.9633 5.5 21.9624C5.5 21.9615 5.5 21.9606 5.5 21.9597C5.5 21.9588 5.5 21.9579 5.5 21.9569C5.5 21.956 5.5 21.955 5.5 21.954C5.5 21.9531 5.5 21.9521 5.5 21.9511C5.5 21.9501 5.5 21.949 5.5 21.948C5.5 21.9469 5.5 21.9459 5.5 21.9448C5.5 21.9437 5.5 21.9426 5.5 21.9415C5.5 21.9404 5.5 21.9393 5.5 21.9382C5.5 21.937 5.5 21.9359 5.5 21.9347C5.5 21.9335 5.5 21.9323 5.5 21.9311C5.5 21.9299 5.5 21.9287 5.5 21.9275C5.5 21.9262 5.5 21.925 5.5 21.9237C5.5 21.9224 5.5 21.9211 5.5 21.9198C5.5 21.9185 5.5 21.9172 5.5 21.9158C5.5 21.9145 5.5 21.9132 5.5 21.9118C5.5 21.9104 5.5 21.909 5.5 21.9076C5.5 21.9062 5.5 21.9048 5.5 21.9033C5.5 21.9019 5.5 21.9004 5.5 21.899C5.5 21.8975 5.5 21.896 5.5 21.8945C5.5 21.893 5.5 21.8914 5.5 21.8899C5.5 21.8884 5.5 21.8868 5.5 21.8852C5.5 21.8836 5.5 21.882 5.5 21.8804C5.5 21.8788 5.5 21.8772 5.5 21.8755C5.5 21.8739 5.5 21.8722 5.5 21.8705C5.5 21.8689 5.5 21.8672 5.5 21.8654C5.5 21.8637 5.5 21.862 5.5 21.8602C5.5 21.8585 5.5 21.8567 5.5 21.8549C5.5 21.8531 5.5 21.8513 5.5 21.8495C5.5 21.8477 5.5 21.8459 5.5 21.844C5.5 21.8421 5.5 21.8403 5.5 21.8384C5.5 21.8365 5.5 21.8346 5.5 21.8326C5.5 21.8307 5.5 21.8288 5.5 21.8268C5.5 21.8248 5.5 21.8229 5.5 21.8209C5.5 21.8189 5.5 21.8168 5.5 21.8148C5.5 21.8128 5.5 21.8107 5.5 21.8086C5.5 21.8066 5.5 21.8045 5.5 21.8024C5.5 21.8003 5.5 21.7981 5.5 21.796C5.5 21.7938 5.5 21.7917 5.5 21.7895C5.5 21.7873 5.5 21.7851 5.5 21.7829C5.5 21.7807 5.5 21.7785 5.5 21.7762C5.5 21.7739 5.5 21.7717 5.5 21.7694C5.5 21.7671 5.5 21.7648 5.5 21.7625C5.5 21.7601 5.5 21.7578 5.5 21.7554C5.5 21.7531 5.5 21.7507 5.5 21.7483C5.5 21.7459 5.5 21.7435 5.5 21.741C5.5 21.7386 5.5 21.7361 5.5 21.7336C5.5 21.7312 5.5 21.7287 5.5 21.7262C5.5 21.7237 5.5 21.7211 5.5 21.7186C5.5 21.716 5.5 21.7135 5.5 21.7109C5.5 21.7083 5.5 21.7057 5.5 21.703C5.5 21.7004 5.5 21.6978 5.5 21.6951C5.5 21.6924 5.5 21.6898 5.5 21.6871C5.5 21.6844 5.5 21.6816 5.5 21.6789C5.5 21.6762 5.5 21.6734 5.5 21.6706C5.5 21.6678 5.5 21.6651 5.5 21.6622C5.5 21.6594 5.5 21.6566 5.5 21.6537C5.5 21.6509 5.5 21.648 5.5 21.6451C5.5 21.6422 5.5 21.6393 5.5 21.6364C5.5 21.6334 5.5 21.6305 5.5 21.6275C5.5 21.6246 5.5 21.6216 5.5 21.6186C5.5 21.6155 5.5 21.6125 5.5 21.6095C5.5 21.6064 5.5 21.6034 5.5 21.6003C5.5 21.5972 5.5 21.5941 5.5 21.5909C5.5 21.5878 5.5 21.5847 5.5 21.5815C5.5 21.5783 5.5 21.5752 5.5 21.5719C5.5 21.5687 5.5 21.5655 5.5 21.5623C5.5 21.559 5.5 21.5558 5.5 21.5525C5.5 21.5492 5.5 21.5459 5.5 21.5426C5.5 21.5392 5.5 21.5359 5.5 21.5325C5.5 21.5292 5.5 21.5258 5.5 21.5224C5.5 21.519 5.5 21.5156 5.5 21.5121C5.5 21.5087 5.5 21.5052 5.5 21.5017C5.5 21.4982 5.5 21.4947 5.5 21.4912C5.5 21.4877 5.5 21.4841 5.5 21.4806C5.5 21.477 5.5 21.4734 5.5 21.4698C5.5 21.4662 5.5 21.4626 5.5 21.4589C5.5 21.4553 5.5 21.4516 5.5 21.4479C5.5 21.4442 5.5 21.4405 5.5 21.4368C5.5 21.4331 5.5 21.4293 5.5 21.4256C5.5 21.4218 5.5 21.418 5.5 21.4142C5.5 21.4104 5.5 21.4065 5.5 21.4027C5.5 21.3988 5.5 21.395 5.5 21.3911C5.5 21.3872 5.5 21.3833 5.5 21.3793C5.5 21.3754 5.5 21.3714 5.5 21.3675C5.5 21.3635 5.5 21.3595 5.5 21.3555C5.5 21.3515 5.5 21.3474 5.5 21.3434C5.5 21.3393 5.5 21.3352 5.5 21.3311C5.5 21.327 5.5 21.3229 5.5 21.3187C5.5 21.3146 5.5 21.3104 5.5 21.3063C5.5 21.3021 5.5 21.2979 5.5 21.2936C5.5 21.2894 5.5 21.2852 5.5 21.2809C5.5 21.2766 5.5 21.2723 5.5 21.268C5.5 21.2637 5.5 21.2594 5.5 21.255C5.5 21.2506 5.5 21.2463 5.5 21.2419C5.5 21.2375 5.5 21.233 5.5 21.2286C5.5 21.2242 5.5 21.2197 5.5 21.2152C5.5 21.2107 5.5 21.2062 5.5 21.2017C5.5 21.1972 5.5 21.1926 5.5 21.188C5.5 21.1835 5.5 21.1789 5.5 21.1743C5.5 21.1696 5.5 21.165 5.5 21.1604C5.5 21.1557 5.5 21.151 5.5 21.1463C5.5 21.1416 5.5 21.1369 5.5 21.1321C5.5 21.1274 5.5 21.1226 5.5 21.1178C5.5 21.1131 5.5 21.1082 5.5 21.1034C5.5 21.0986 5.5 21.0937 5.5 21.0888C5.5 21.084 5.5 21.0791 5.5 21.0741C5.5 21.0692 5.5 21.0643 5.5 21.0593C5.5 21.0543 5.5 21.0494 5.5 21.0443C5.5 21.0393 5.5 21.0343 5.5 21.0293C5.5 21.0242 5.5 21.0191 5.5 21.014C5.5 21.0089 5.5 21.0038 5.5 20.9987C5.5 20.9935 5.5 20.9883 5.5 20.9832C5.5 20.978 5.5 20.9728 5.5 20.9675C5.5 20.9623 5.5 20.957 5.5 20.9518C5.5 20.9465 5.5 20.9412 5.5 20.9359C5.5 20.9305 5.5 20.9252 5.5 20.9198C5.5 20.9144 5.5 20.909 5.5 20.9036C5.5 20.8982 5.5 20.8928 5.5 20.8873C5.5 20.8819 5.5 20.8764 5.5 20.8709C5.5 20.8654 5.5 20.8598 5.5 20.8543C5.5 20.8487 5.5 20.8432 5.5 20.8376C5.5 20.832 5.5 20.8263 5.5 20.8207C5.5 20.8151 5.5 20.8094 5.5 20.8037C5.5 20.798 5.5 20.7923 5.5 20.7866C5.5 20.7808 5.5 20.7751 5.5 20.7693C5.5 20.7635 5.5 20.7577 5.5 20.7519C5.5 20.746 5.5 20.7402 5.5 20.7343C5.5 20.7284 5.5 20.7225 5.5 20.7166C5.5 20.7107 5.5 20.7047 5.5 20.6988C5.5 20.6928 5.5 20.6868 5.5 20.6808C5.5 20.6748 5.5 20.6687 5.5 20.6627C5.5 20.6566 5.5 20.6505 5.5 20.6444C5.5 20.6383 5.5 20.6322 5.5 20.626C5.5 20.6199 5.5 20.6137 5.5 20.6075C5.5 20.6013 5.5 20.595 5.5 20.5888C5.5 20.5825 5.5 20.5763 5.5 20.57C5.5 20.5637 5.5 20.5573 5.5 20.551C5.5 20.5446 5.5 20.5383 5.5 20.5319C5.5 20.5255 5.5 20.5191 5.5 20.5126C5.5 20.5062 5.5 20.4997 5.5 20.4932C5.5 20.4867 5.5 20.4802 5.5 20.4737C5.5 20.4671 5.5 20.4606 5.5 20.454C5.5 20.4474 5.5 20.4408 5.5 20.4341C5.5 20.4275 5.5 20.4209 5.5 20.4142C5.5 20.4075 5.5 20.4008 5.5 20.394C5.5 20.3873 5.5 20.3805 5.5 20.3738C5.5 20.367 5.5 20.3602 5.5 20.3533C5.5 20.3465 5.5 20.3397 5.5 20.3328C5.5 20.3259 5.5 20.319 5.5 20.3121C5.5 20.3051 5.5 20.2982 5.5 20.2912C5.5 20.2842 5.5 20.2772 5.5 20.2702C5.5 20.2632 5.5 20.2561 5.5 20.249C5.5 20.242 5.5 20.2349 5.5 20.2277C5.5 20.2206 5.5 20.2135 5.5 20.2063C5.5 20.1991 5.5 20.1919 5.5 20.1847C5.5 20.1774 5.5 20.1702 5.5 20.1629C5.5 20.1556 5.5 20.1483 5.5 20.141C5.5 20.1337 5.5 20.1263 5.5 20.119C5.5 20.1116 5.5 20.1042 5.5 20.0968C5.5 20.0893 5.5 20.0819 5.5 20.0744C5.5 20.0669 5.5 20.0594 5.5 20.0519C5.5 20.0444 5.5 20.0368 5.5 20.0292C5.5 20.0217 5.5 20.0141 5.5 20.0064C5.5 19.9988 5.5 19.9911 5.5 19.9835C5.5 19.9758 5.5 19.9681 5.5 19.9604C5.5 19.9526 5.5 19.9449 5.5 19.9371C5.5 19.9293 5.5 19.9215 5.5 19.9137C5.5 19.9058 5.5 19.898 5.5 19.8901C5.5 19.8822 5.5 19.8743 5.5 19.8664C5.5 19.8584 5.5 19.8505 5.5 19.8425C5.5 19.8345 5.5 19.8265 5.5 19.8184C5.5 19.8104 5.5 19.8023 5.5 19.7942C5.5 19.7862 5.5 19.778 5.5 19.7699C5.5 19.7618 5.5 19.7536 5.5 19.7454C5.5 19.7372 5.5 19.729 5.5 19.7207C5.5 19.7125 5.5 19.7042 5.5 19.6959C5.5 19.6876 5.5 19.6793 5.5 19.6709C5.5 19.6626 5.5 19.6542 5.5 19.6458C5.5 19.6374 5.5 19.629 5.5 19.6205C5.5 19.6121 5.5 19.6036 5.5 19.5951C5.5 19.5866 5.5 19.578 5.5 19.5695C5.5 19.5609 5.5 19.5523 5.5 19.5437C5.5 19.5351 5.5 19.5265 5.5 19.5178C5.5 19.5091 5.5 19.5004 5.5 19.4917C5.5 19.483 5.5 19.4742 5.5 19.4655C5.5 19.4567 5.5 19.4479 5.5 19.4391C5.5 19.4302 5.5 19.4214 5.5 19.4125C5.5 19.4036 5.5 19.3947 5.5 19.3858C5.5 19.3768 5.5 19.3679 5.5 19.3589C5.5 19.3499 5.5 19.3409 5.5 19.3319C5.5 19.3228 5.5 19.3137 5.5 19.3047C5.5 19.2956 5.5 19.2864 5.5 19.2773C5.5 19.2681 5.5 19.259 5.5 19.2498C5.5 19.2406 5.5 19.2313 5.5 19.2221C5.5 19.2128 5.5 19.2035 5.5 19.1942C5.5 19.1849 5.5 19.1756 5.5 19.1662C5.5 19.1568 5.5 19.1474 5.5 19.138C5.5 19.1286 5.5 19.1191 5.5 19.1097C5.5 19.1002 5.5 19.0907 5.5 19.0812C5.5 19.0716 5.5 19.0621 5.5 19.0525C5.5 19.0429 5.5 19.0333 5.5 19.0236C5.5 19.014 5.5 19.0043 5.5 18.9946C5.5 18.9849 5.5 18.9752 5.5 18.9655C5.5 18.9557 5.5 18.9459 5.5 18.9361C5.5 18.9263 5.5 18.9165 5.5 18.9066C5.5 18.8968 5.5 18.8869 5.5 18.8769C5.5 18.867 5.5 18.8571 5.5 18.8471C5.5 18.8371 5.5 18.8271 5.5 18.8171C5.5 18.8071 5.5 18.797 5.5 18.7869C5.5 18.7768 5.5 18.7667 5.5 18.7566C5.5 18.7464 5.5 18.7363 5.5 18.7261C5.5 18.7159 5.5 18.7056 5.5 18.6954C5.5 18.6851 5.5 18.6749 5.5 18.6645C5.5 18.6542 5.5 18.6439 5.5 18.6335C5.5 18.6232 5.5 18.6128 5.5 18.6023C5.5 18.5919 5.5 18.5815 5.5 18.571C5.5 18.5605 5.5 18.55 5.5 18.5395C5.5 18.5289 5.5 18.5183 5.5 18.5078C5.5 18.4972 5.5 18.4865 5.5 18.4759C5.5 18.4652 5.5 18.4545 5.5 18.4438C5.5 18.4331 5.5 18.4224 5.5 18.4116C5.5 18.4009 5.5 18.3901 5.5 18.3792C5.5 18.3684 5.5 18.3576 5.5 18.3467C5.5 18.3358 5.5 18.3249 5.5 18.3139C5.5 18.303 5.5 18.292 5.5 18.281C5.5 18.27 5.5 18.259 5.5 18.248C5.5 18.2369 5.5 18.2258 5.5 18.2147C5.5 18.2036 5.5 18.1924 5.5 18.1813C5.5 18.1701 5.5 18.1589 5.5 18.1477C5.5 18.1364 5.5 18.1252 5.5 18.1139C5.5 18.1026 5.5 18.0913 5.5 18.0799C5.5 18.0686 5.5 18.0572 5.5 18.0458C5.5 18.0344 5.5 18.023 5.5 18.0115C5.5 18 5.5 17.9885 5.5 17.977C5.5 17.9655 5.5 17.9539 5.5 17.9424C5.5 17.9308 5.5 17.9192 5.5 17.9075C5.5 17.8959 5.5 17.8842 5.5 17.8725C5.5 17.8608 5.5 17.8491 5.5 17.8373C5.5 17.8256 5.5 17.8138 5.5 17.802C5.5 17.7901 5.5 17.7783 5.5 17.7664C5.5 17.7545 5.5 17.7426 5.5 17.7307C5.5 17.7187 5.5 17.7068 5.5 17.6948C5.5 17.6828 5.5 17.6707 5.5 17.6587C5.5 17.6466 5.5 17.6345 5.5 17.6224C5.5 17.6103 5.5 17.5982 5.5 17.586C5.5 17.5738 5.5 17.5616 5.5 17.5494C5.5 17.5371 5.5 17.5248 5.5 17.5125C5.5 17.5002 5.5 17.4879 5.5 17.4756C5.5 17.4632 5.5 17.4508 5.5 17.4384C5.5 17.426 5.5 17.4135 5.5 17.401C5.5 17.3886 5.5 17.376 5.5 17.3635C5.5 17.351 5.5 17.3384 5.5 17.3258C5.5 17.3132 5.5 17.3005 5.5 17.2879C5.5 17.2752 5.5 17.2625 5.5 17.2498C5.5 17.2371 5.5 17.2243 5.5 17.2115C5.5 17.1987 5.5 17.1859 5.5 17.1731C5.5 17.1602 5.5 17.1474 5.5 17.1344C5.5 17.1215 5.5 17.1086 5.5 17.0956C5.5 17.0827 5.5 17.0696 5.5 17.0566C5.5 17.0436 5.5 17.0305 5.5 17.0174C5.5 17.0043 5.5 16.9912 5.5 16.978C5.5 16.9649 5.5 16.9517 5.5 16.9385C5.5 16.9253 5.5 16.912 5.5 16.8987C5.5 16.8855 5.5 16.8721 5.5 16.8588C5.5 16.8455 5.5 16.8321 5.5 16.8187C5.5 16.8053 5.5 16.7918 5.5 16.7784C5.5 16.7649 5.5 16.7514 5.5 16.7379C5.5 16.7243 5.5 16.7108 5.5 16.6972C5.5 16.6836 5.5 16.67 5.5 16.6563C5.5 16.6426 5.5 16.629 5.5 16.6152C5.5 16.6015 5.5 16.5878 5.5 16.574C5.5 16.5602 5.5 16.5464 5.5 16.5325C5.5 16.5187 5.5 16.5048 5.5 16.4909C5.5 16.477 5.5 16.4631 5.5 16.4491C5.5 16.4351 5.5 16.4211 5.5 16.4071C5.5 16.393 5.5 16.379 5.5 16.3649C5.5 16.3508 5.5 16.3366 5.5 16.3225C5.5 16.3083 5.5 16.2941 5.5 16.2799C5.5 16.2657 5.5 16.2514 5.5 16.2371C5.5 16.2228 5.5 16.2085 5.5 16.1941C5.5 16.1798 5.5 16.1654 5.5 16.151C5.5 16.1365 5.5 16.1221 5.5 16.1076C5.5 16.0931 5.5 16.0786 5.5 16.0641C5.5 16.0495 5.5 16.0349 5.5 16.0203C5.5 16.0057 5.5 15.991 5.5 15.9764C5.5 15.9617 5.5 15.947 5.5 15.9322C5.5 15.9175 5.5 15.9027 5.5 15.8879C5.5 15.8731 5.5 15.8583 5.5 15.8434C5.5 15.8285 5.5 15.8136 5.5 15.7987C5.5 15.7837 5.5 15.7688 5.5 15.7537C5.5 15.7387 5.5 15.7237 5.5 15.7086C5.5 15.6936 5.5 15.6785 5.5 15.6633C5.5 15.6482 5.5 15.633 5.5 15.6178C5.5 15.6026 5.5 15.5874 5.5 15.5721C5.5 15.5569 5.5 15.5416 5.5 15.5262C5.5 15.5109 5.5 15.4955 5.5 15.4801C5.5 15.4647 5.5 15.4493 5.5 15.4338C5.5 15.4184 5.5 15.4029 5.5 15.3873C5.5 15.3718 5.5 15.3562 5.5 15.3406C5.5 15.3251 5.5 15.3094 5.5 15.2938C5.5 15.2781 5.5 15.2624 5.5 15.2467C5.5 15.2309 5.5 15.2152 5.5 15.1994C5.5 15.1836 5.5 15.1677 5.5 15.1519C5.5 15.136 5.5 15.1201 5.5 15.1042C5.5 15.0883 5.5 15.0723 5.5 15.0563C5.5 15.0403 5.5 15.0243 5.5 15.0082C5.5 14.9921 5.5 14.976 5.5 14.9599C5.5 14.9438 5.5 14.9276 5.5 14.9114C5.5 14.8952 5.5 14.879 5.5 14.8627C5.5 14.8464 5.5 14.8301 5.5 14.8138C5.5 14.7975 5.5 14.7811 5.5 14.7647C5.5 14.7483 5.5 14.7319 5.5 14.7154C5.5 14.6989 5.5 14.6824 5.5 14.6659C5.5 14.6493 5.5 14.6328 5.5 14.6162C5.5 14.5996 5.5 14.5829 5.5 14.5662C5.5 14.5496 5.5 14.5329 5.5 14.5161C5.5 14.4994 5.5 14.4826 5.5 14.4658C5.5 14.449 5.5 14.4321 5.5 14.4152C5.5 14.3984 5.5 14.3814 5.5 14.3645C5.5 14.3476 5.5 14.3306 5.5 14.3136C5.5 14.2965 5.5 14.2795 5.5 14.2624C5.5 14.2453 5.5 14.2282 5.5 14.211C5.5 14.1939 5.5 14.1767 5.5 14.1595C5.5 14.1422 5.5 14.125 5.5 14.1077C5.5 14.0904 5.5 14.0731 5.5 14.0557C5.5 14.0383 5.5 14.0209 5.5 14.0035C5.5 13.9861 5.5 13.9686 5.5 13.9511C5.5 13.9336 5.5 13.9161 5.5 13.8985C5.5 13.8809 5.5 13.8633 5.5 13.8457C5.5 13.828 5.5 13.8104 5.5 13.7926C5.5 13.7749 5.5 13.7572 5.5 13.7394C5.5 13.7216 5.5 13.7038 5.5 13.686C5.5 13.6681 5.5 13.6502 5.5 13.6323C5.5 13.6144 5.5 13.5964 5.5 13.5784C5.5 13.5604 5.5 13.5424 5.5 13.5243C5.5 13.5063 5.5 13.4882 5.5 13.4701C5.5 13.4519 5.5 13.4338 5.5 13.4155C5.5 13.3973 5.5 13.3791 5.5 13.3608C5.5 13.3426 5.5 13.3242 5.5 13.3059C5.5 13.2876 5.5 13.2692 5.5 13.2508C5.5 13.2323 5.5 13.2139 5.5 13.1954C5.5 13.1769 5.5 13.1584 5.5 13.1398C5.5 13.1213 5.5 13.1027 5.5 13.084C5.5 13.0654 5.5 13.0467 5.5 13.028C5.5 13.0093 5.5 12.9906 5.5 12.9718C5.5 12.9531 5.5 12.9342 5.5 12.9154C5.5 12.8965 5.5 12.8777 5.5 12.8588C5.5 12.8398 5.5 12.8209 5.5 12.8019C5.5 12.7829 5.5 12.7639 5.5 12.7448C5.5 12.7258 5.5 12.7067 5.5 12.6875C5.5 12.6684 5.5 12.6492 5.5 12.63C5.5 12.6108 5.5 12.5916 5.5 12.5723C5.5 12.553 5.5 12.5337 5.5 12.5143C5.5 12.495 5.5 12.4756 5.5 12.4562C5.5 12.4367 5.5 12.4173 5.5 12.3978C5.5 12.3783 5.5 12.3588 5.5 12.3392C5.5 12.3196 5.5 12.3 5.5 12.2804C5.5 12.2607 5.5 12.2411 5.5 12.2213C5.5 12.2016 5.5 12.1819 5.5 12.1621C5.5 12.1423 5.5 12.1225 5.5 12.1026C5.5 12.0827 5.5 12.0628 5.5 12.0429C5.5 12.023 5.5 12.003 5.5 11.983C5.5 11.963 5.5 11.9429 5.5 11.9228C5.5 11.9028 5.5 11.8826 5.5 11.8625C5.5 11.8423 5.5 11.8221 5.5 11.8019C5.5 11.7817 5.5 11.7614 5.5 11.7411C5.5 11.7208 5.5 11.7005 5.5 11.6801C5.5 11.6597 5.5 11.6393 5.5 11.6188C5.5 11.5984 5.5 11.5779 5.5 11.5574C5.5 11.5368 5.5 11.5163 5.5 11.4957C5.5 11.4751 5.5 11.4544 5.5 11.4337C5.5 11.4131 5.5 11.3923 5.5 11.3716C5.5 11.3508 5.5 11.3301 5.5 11.3092C5.5 11.2884 5.5 11.2675 5.5 11.2466C5.5 11.2257 5.5 11.2048 5.5 11.1838C5.5 11.1628 5.5 11.1418 5.5 11.1208C5.5 11.0997 5.5 11.0786 5.5 11.0575C5.5 11.0364 5.5 11.0152 5.5 10.994C5.5 10.9728 5.5 10.9516 5.5 10.9303C5.5 10.909 5.5 10.8877 5.5 10.8663C5.5 10.845 5.5 10.8236 5.5 10.8022C5.5 10.7807 5.5 10.7593 5.5 10.7378C5.5 10.7163 5.5 10.6947 5.5 10.6731C5.5 10.6515 5.5 10.6299 5.5 10.6083C5.5 10.5866 5.5 10.5649 5.5 10.5432C5.5 10.5214 5.5 10.4997 5.5 10.4779C5.5 10.4561 5.5 10.4342 5.5 10.4123C5.5 10.3904 5.5 10.3685 5.5 10.3465C5.5 10.3246 5.5 10.3026 5.5 10.2805C5.5 10.2585 5.5 10.2364 5.5 10.2143C5.5 10.1922 5.5 10.17 5.5 10.1478C5.5 10.1256 5.5 10.1034 5.5 10.0811C5.5 10.0589 5.5 10.0366 5.5 10.0142C5.5 9.99186 5.5 9.96947 5.5 9.94704C5.5 9.92462 5.5 9.90215 5.5 9.87965C5.5 9.85715 5.5 9.83461 5.5 9.81203C5.5 9.78945 5.5 9.76683 5.5 9.74417C5.5 9.72151 5.5 9.69881 5.5 9.67608C5.5 9.65334 5.5 9.63057 5.5 9.60775C5.5 9.58494 5.5 9.56209 5.5 9.5392C5.5 9.5163 5.5 9.49337 5.5 9.4704C5.5 9.44743 5.5 9.42442 5.5 9.40138C5.5 9.37833 5.5 9.35524 5.5 9.33212C5.5 9.30899 5.5 9.28582 5.5 9.26262C5.5 9.23941 5.5 9.21617 5.5 9.19289C5.5 9.1696 5.5 9.14628 5.5 9.12292C5.5 9.09956 5.5 9.07616 5.5 9.05272C5.5 9.02928 5.5 9.0058 5.5 8.98228C5.5 8.95876 5.5 8.9352 5.5 8.9116C5.5 8.888 5.5 8.86436 5.5 8.84069C5.5 8.81701 5.5 8.79329 5.5 8.76953C5.5 8.74578 5.5 8.72198 5.5 8.69814C5.5 8.67431 5.5 8.65043 5.5 8.62652C5.5 8.6026 5.5 8.57864 5.5 8.55465C5.5 8.53065 5.5 8.50662 5.5 8.48254C5.5 8.45847 5.5 8.43435 5.5 8.4102C5.5 8.38604 5.5 8.36185 5.5 8.33762C5.5 8.31338 5.5 8.28911 5.5 8.26479C5.5 8.24048 5.5 8.21612 5.5 8.19173C5.5 8.16733 5.5 8.1429 5.5 8.11842C5.5 8.09395 5.5 8.06943 5.5 8.04488C5.5 8.02032 5.5 7.99572 5.5 7.97109C5.5 7.94645 5.5 7.92178 5.5 7.89706C5.5 7.87234 5.5 7.84759 5.5 7.82279C5.5 7.79799 5.5 7.77315 5.5 7.74827C5.5 7.7234 5.5 7.69848 5.5 7.67352C5.5 7.64856 5.5 7.62356 5.5 7.59852C5.5 7.57348 5.5 7.5484 5.5 7.52328C5.5 7.49815 5.5 7.47299 5.5 7.44779C5.5 7.42259 5.5 7.39734 5.5 7.37206C5.5 7.34678 5.5 7.32145 5.5 7.29608C5.5 7.27072 5.5 7.24531 5.5 7.21986C5.5 7.19442 5.5 7.16893 5.5 7.1434C5.5 7.11787 5.5 7.0923 5.5 7.06669C5.5 7.04108 5.5 7.01543 5.5 6.98973C5.5 6.96404 5.5 6.93831 5.5 6.91253C5.5 6.88676 5.5 6.86094 5.5 6.83508C5.5 6.80923 5.5 6.78333 5.5 6.75739C5.5 6.73145 5.5 6.70547 5.5 6.67944C5.5 6.65342 5.5 6.62736 5.5 6.60125C5.5 6.57515 5.5 6.549 5.5 6.52282C5.5 6.49663 5.5 6.4704 5.5 6.44413C5.5 6.41786 5.5 6.39155 5.5 6.36519C5.5 6.33884 5.5 6.31245 5.5 6.28601C5.5 6.25957 5.5 6.2331 5.5 6.20658C5.5 6.18006 5.5 6.1535 5.5 6.12689C5.5 6.10029 5.5 6.07365 5.5 6.04696C5.5 6.02028 5.5 5.99355 5.5 5.96678C5.5 5.94001 5.5 5.9132 5.5 5.88634C5.5 5.85949 5.5 5.8326 5.5 5.80566C5.5 5.77872 5.5 5.75174 5.5 5.72472C5.5 5.6977 5.5 5.67064 5.5 5.64354C5.5 5.61643 5.5 5.58928 5.5 5.5621C5.5 5.53491 5.5 5.50768 5.5 5.4804C5.5 5.45313 5.5 5.42582 5.5 5.39846C5.5 5.3711 5.5 5.3437 5.5 5.31626C5.5 5.28882 5.5 5.26134 5.5 5.23381C5.5 5.20628 5.5 5.17872 5.5 5.1511C5.5 5.12349 5.5 5.09584 5.5 5.06815C5.5 5.04045 5.5 5.01271 5.5 4.98493C5.5 4.95715 5.5 4.92933 5.5 4.90146C5.5 4.8736 5.5 4.84569 5.5 4.81774C5.5 4.78979 5.5 4.7618 5.5 4.73376C5.5 4.70573 5.5 4.67765 5.5 4.64953C5.5 4.62141 5.5 4.59324 5.5 4.56504C5.5 4.53683 5.5 4.50858 5.5 4.48029C5.5 4.452 5.5 4.42366 5.5 4.39528C5.5 4.36691 5.5 4.33849 5.5 4.31002C5.5 4.28156 5.5 4.25305 5.5 4.2245C5.5 4.19595 5.5 4.16736 5.5 4.13873C5.5 4.11009 5.5 4.08141 5.5 4.05269C5.5 4.02397 5.5 3.9952 5.5 3.9664C5.5 3.93759 5.5 3.90874 5.5 3.87984C5.5 3.85095 5.5 3.82201 5.5 3.79303C5.5 3.76405 5.5 3.73503 5.5 3.70596C5.5 3.67689 5.5 3.64778 5.5 3.61863C5.5 3.58947 5.5 3.56028 5.5 3.53104C5.5 3.5018 5.5 3.47251 5.5 3.44318C5.5 3.41386 5.5 3.38449 5.5 3.35507C5.5 3.32566 5.5 3.2962 5.5 3.2667C5.5 3.23719 5.5 3.20765 5.5 3.17806C5.5 3.14847 5.5 3.11884 5.5 3.08916C5.5 3.05948 5.5 3.02976 5.5 3H0.5C0.5 3.02976 0.5 3.05948 0.5 3.08916C0.5 3.11884 0.5 3.14847 0.5 3.17806C0.5 3.20765 0.5 3.23719 0.5 3.2667C0.5 3.2962 0.5 3.32566 0.5 3.35507C0.5 3.38449 0.5 3.41386 0.5 3.44318C0.5 3.47251 0.5 3.5018 0.5 3.53104C0.5 3.56028 0.5 3.58947 0.5 3.61863C0.5 3.64778 0.5 3.67689 0.5 3.70596C0.5 3.73503 0.5 3.76405 0.5 3.79303C0.5 3.82201 0.5 3.85095 0.5 3.87984C0.5 3.90874 0.5 3.93759 0.5 3.9664C0.5 3.9952 0.5 4.02397 0.5 4.05269C0.5 4.08141 0.5 4.11009 0.5 4.13873C0.5 4.16736 0.5 4.19595 0.5 4.2245C0.5 4.25305 0.5 4.28156 0.5 4.31002C0.5 4.33849 0.5 4.36691 0.5 4.39528C0.5 4.42366 0.5 4.452 0.5 4.48029C0.5 4.50858 0.5 4.53683 0.5 4.56504C0.5 4.59324 0.5 4.62141 0.5 4.64953C0.5 4.67765 0.5 4.70573 0.5 4.73376C0.5 4.7618 0.5 4.78979 0.5 4.81774C0.5 4.84569 0.5 4.8736 0.5 4.90146C0.5 4.92933 0.5 4.95715 0.5 4.98493C0.5 5.01271 0.5 5.04045 0.5 5.06815C0.5 5.09584 0.5 5.12349 0.5 5.1511C0.5 5.17872 0.5 5.20628 0.5 5.23381C0.5 5.26134 0.5 5.28882 0.5 5.31626C0.5 5.3437 0.5 5.3711 0.5 5.39846C0.5 5.42582 0.5 5.45313 0.5 5.4804C0.5 5.50768 0.5 5.53491 0.5 5.5621C0.5 5.58928 0.5 5.61643 0.5 5.64354C0.5 5.67064 0.5 5.6977 0.5 5.72472C0.5 5.75174 0.5 5.77872 0.5 5.80566C0.5 5.8326 0.5 5.85949 0.5 5.88634C0.5 5.9132 0.5 5.94001 0.5 5.96678C0.5 5.99355 0.5 6.02028 0.5 6.04696C0.5 6.07365 0.5 6.10029 0.5 6.12689C0.5 6.1535 0.5 6.18006 0.5 6.20658C0.5 6.2331 0.5 6.25957 0.5 6.28601C0.5 6.31245 0.5 6.33884 0.5 6.36519C0.5 6.39155 0.5 6.41786 0.5 6.44413C0.5 6.4704 0.5 6.49663 0.5 6.52282C0.5 6.549 0.5 6.57515 0.5 6.60125C0.5 6.62736 0.5 6.65342 0.5 6.67944C0.5 6.70547 0.5 6.73145 0.5 6.75739C0.5 6.78333 0.5 6.80923 0.5 6.83508C0.5 6.86094 0.5 6.88676 0.5 6.91253C0.5 6.93831 0.5 6.96404 0.5 6.98973C0.5 7.01543 0.5 7.04108 0.5 7.06669C0.5 7.0923 0.5 7.11787 0.5 7.1434C0.5 7.16893 0.5 7.19442 0.5 7.21986C0.5 7.24531 0.5 7.27072 0.5 7.29608C0.5 7.32145 0.5 7.34678 0.5 7.37206C0.5 7.39734 0.5 7.42259 0.5 7.44779C0.5 7.47299 0.5 7.49815 0.5 7.52328C0.5 7.5484 0.5 7.57348 0.5 7.59852C0.5 7.62356 0.5 7.64856 0.5 7.67352C0.5 7.69848 0.5 7.7234 0.5 7.74827C0.5 7.77315 0.5 7.79799 0.5 7.82279C0.5 7.84759 0.5 7.87234 0.5 7.89706C0.5 7.92178 0.5 7.94645 0.5 7.97109C0.5 7.99572 0.5 8.02032 0.5 8.04488C0.5 8.06943 0.5 8.09395 0.5 8.11842C0.5 8.1429 0.5 8.16733 0.5 8.19173C0.5 8.21612 0.5 8.24048 0.5 8.26479C0.5 8.28911 0.5 8.31338 0.5 8.33762C0.5 8.36185 0.5 8.38604 0.5 8.4102C0.5 8.43435 0.5 8.45847 0.5 8.48254C0.5 8.50662 0.5 8.53065 0.5 8.55465C0.5 8.57864 0.5 8.6026 0.5 8.62652C0.5 8.65043 0.5 8.67431 0.5 8.69814C0.5 8.72198 0.5 8.74578 0.5 8.76953C0.5 8.79329 0.5 8.81701 0.5 8.84069C0.5 8.86436 0.5 8.888 0.5 8.9116C0.5 8.9352 0.5 8.95876 0.5 8.98228C0.5 9.0058 0.5 9.02928 0.5 9.05272C0.5 9.07616 0.5 9.09956 0.5 9.12292C0.5 9.14628 0.5 9.1696 0.5 9.19289C0.5 9.21617 0.5 9.23941 0.5 9.26262C0.5 9.28582 0.5 9.30899 0.5 9.33212C0.5 9.35524 0.5 9.37833 0.5 9.40138C0.5 9.42442 0.5 9.44743 0.5 9.4704C0.5 9.49337 0.5 9.5163 0.5 9.5392C0.5 9.56209 0.5 9.58494 0.5 9.60775C0.5 9.63057 0.5 9.65334 0.5 9.67608C0.5 9.69881 0.5 9.72151 0.5 9.74417C0.5 9.76683 0.5 9.78945 0.5 9.81203C0.5 9.83461 0.5 9.85715 0.5 9.87965C0.5 9.90215 0.5 9.92462 0.5 9.94704C0.5 9.96947 0.5 9.99186 0.5 10.0142C0.5 10.0366 0.5 10.0589 0.5 10.0811C0.5 10.1034 0.5 10.1256 0.5 10.1478C0.5 10.17 0.5 10.1922 0.5 10.2143C0.5 10.2364 0.5 10.2585 0.5 10.2805C0.5 10.3026 0.5 10.3246 0.5 10.3465C0.5 10.3685 0.5 10.3904 0.5 10.4123C0.5 10.4342 0.5 10.4561 0.5 10.4779C0.5 10.4997 0.5 10.5214 0.5 10.5432C0.5 10.5649 0.5 10.5866 0.5 10.6083C0.5 10.6299 0.5 10.6515 0.5 10.6731C0.5 10.6947 0.5 10.7163 0.5 10.7378C0.5 10.7593 0.5 10.7807 0.5 10.8022C0.5 10.8236 0.5 10.845 0.5 10.8663C0.5 10.8877 0.5 10.909 0.5 10.9303C0.5 10.9516 0.5 10.9728 0.5 10.994C0.5 11.0152 0.5 11.0364 0.5 11.0575C0.5 11.0786 0.5 11.0997 0.5 11.1208C0.5 11.1418 0.5 11.1628 0.5 11.1838C0.5 11.2048 0.5 11.2257 0.5 11.2466C0.5 11.2675 0.5 11.2884 0.5 11.3092C0.5 11.3301 0.5 11.3508 0.5 11.3716C0.5 11.3923 0.5 11.4131 0.5 11.4337C0.5 11.4544 0.5 11.4751 0.5 11.4957C0.5 11.5163 0.5 11.5368 0.5 11.5574C0.5 11.5779 0.5 11.5984 0.5 11.6188C0.5 11.6393 0.5 11.6597 0.5 11.6801C0.5 11.7005 0.5 11.7208 0.5 11.7411C0.5 11.7614 0.5 11.7817 0.5 11.8019C0.5 11.8221 0.5 11.8423 0.5 11.8625C0.5 11.8826 0.5 11.9028 0.5 11.9228C0.5 11.9429 0.5 11.963 0.5 11.983C0.5 12.003 0.5 12.023 0.5 12.0429C0.5 12.0628 0.5 12.0827 0.5 12.1026C0.5 12.1225 0.5 12.1423 0.5 12.1621C0.5 12.1819 0.5 12.2016 0.5 12.2213C0.5 12.2411 0.5 12.2607 0.5 12.2804C0.5 12.3 0.5 12.3196 0.5 12.3392C0.5 12.3588 0.5 12.3783 0.5 12.3978C0.5 12.4173 0.5 12.4367 0.5 12.4562C0.5 12.4756 0.5 12.495 0.5 12.5143C0.5 12.5337 0.5 12.553 0.5 12.5723C0.5 12.5916 0.5 12.6108 0.5 12.63C0.5 12.6492 0.5 12.6684 0.5 12.6875C0.5 12.7067 0.5 12.7258 0.5 12.7448C0.5 12.7639 0.5 12.7829 0.5 12.8019C0.5 12.8209 0.5 12.8398 0.5 12.8588C0.5 12.8777 0.5 12.8965 0.5 12.9154C0.5 12.9342 0.5 12.9531 0.5 12.9718C0.5 12.9906 0.5 13.0093 0.5 13.028C0.5 13.0467 0.5 13.0654 0.5 13.084C0.5 13.1027 0.5 13.1213 0.5 13.1398C0.5 13.1584 0.5 13.1769 0.5 13.1954C0.5 13.2139 0.5 13.2323 0.5 13.2508C0.5 13.2692 0.5 13.2876 0.5 13.3059C0.5 13.3242 0.5 13.3426 0.5 13.3608C0.5 13.3791 0.5 13.3973 0.5 13.4155C0.5 13.4338 0.5 13.4519 0.5 13.4701C0.5 13.4882 0.5 13.5063 0.5 13.5243C0.5 13.5424 0.5 13.5604 0.5 13.5784C0.5 13.5964 0.5 13.6144 0.5 13.6323C0.5 13.6502 0.5 13.6681 0.5 13.686C0.5 13.7038 0.5 13.7216 0.5 13.7394C0.5 13.7572 0.5 13.7749 0.5 13.7926C0.5 13.8104 0.5 13.828 0.5 13.8457C0.5 13.8633 0.5 13.8809 0.5 13.8985C0.5 13.9161 0.5 13.9336 0.5 13.9511C0.5 13.9686 0.5 13.9861 0.5 14.0035C0.5 14.0209 0.5 14.0383 0.5 14.0557C0.5 14.0731 0.5 14.0904 0.5 14.1077C0.5 14.125 0.5 14.1422 0.5 14.1595C0.5 14.1767 0.5 14.1939 0.5 14.211C0.5 14.2282 0.5 14.2453 0.5 14.2624C0.5 14.2795 0.5 14.2965 0.5 14.3136C0.5 14.3306 0.5 14.3476 0.5 14.3645C0.5 14.3814 0.5 14.3984 0.5 14.4152C0.5 14.4321 0.5 14.449 0.5 14.4658C0.5 14.4826 0.5 14.4994 0.5 14.5161C0.5 14.5329 0.5 14.5496 0.5 14.5662C0.5 14.5829 0.5 14.5996 0.5 14.6162C0.5 14.6328 0.5 14.6493 0.5 14.6659C0.5 14.6824 0.5 14.6989 0.5 14.7154C0.5 14.7319 0.5 14.7483 0.5 14.7647C0.5 14.7811 0.5 14.7975 0.5 14.8138C0.5 14.8301 0.5 14.8464 0.5 14.8627C0.5 14.879 0.5 14.8952 0.5 14.9114C0.5 14.9276 0.5 14.9438 0.5 14.9599C0.5 14.976 0.5 14.9921 0.5 15.0082C0.5 15.0243 0.5 15.0403 0.5 15.0563C0.5 15.0723 0.5 15.0883 0.5 15.1042C0.5 15.1201 0.5 15.136 0.5 15.1519C0.5 15.1677 0.5 15.1836 0.5 15.1994C0.5 15.2152 0.5 15.2309 0.5 15.2467C0.5 15.2624 0.5 15.2781 0.5 15.2938C0.5 15.3094 0.5 15.3251 0.5 15.3406C0.5 15.3562 0.5 15.3718 0.5 15.3873C0.5 15.4029 0.5 15.4184 0.5 15.4338C0.5 15.4493 0.5 15.4647 0.5 15.4801C0.5 15.4955 0.5 15.5109 0.5 15.5262C0.5 15.5416 0.5 15.5569 0.5 15.5721C0.5 15.5874 0.5 15.6026 0.5 15.6178C0.5 15.633 0.5 15.6482 0.5 15.6633C0.5 15.6785 0.5 15.6936 0.5 15.7086C0.5 15.7237 0.5 15.7387 0.5 15.7537C0.5 15.7688 0.5 15.7837 0.5 15.7987C0.5 15.8136 0.5 15.8285 0.5 15.8434C0.5 15.8583 0.5 15.8731 0.5 15.8879C0.5 15.9027 0.5 15.9175 0.5 15.9322C0.5 15.947 0.5 15.9617 0.5 15.9764C0.5 15.991 0.5 16.0057 0.5 16.0203C0.5 16.0349 0.5 16.0495 0.5 16.0641C0.5 16.0786 0.5 16.0931 0.5 16.1076C0.5 16.1221 0.5 16.1365 0.5 16.151C0.5 16.1654 0.5 16.1798 0.5 16.1941C0.5 16.2085 0.5 16.2228 0.5 16.2371C0.5 16.2514 0.5 16.2657 0.5 16.2799C0.5 16.2941 0.5 16.3083 0.5 16.3225C0.5 16.3366 0.5 16.3508 0.5 16.3649C0.5 16.379 0.5 16.393 0.5 16.4071C0.5 16.4211 0.5 16.4351 0.5 16.4491C0.5 16.4631 0.5 16.477 0.5 16.4909C0.5 16.5048 0.5 16.5187 0.5 16.5325C0.5 16.5464 0.5 16.5602 0.5 16.574C0.5 16.5878 0.5 16.6015 0.5 16.6152C0.5 16.629 0.5 16.6426 0.5 16.6563C0.5 16.67 0.5 16.6836 0.5 16.6972C0.5 16.7108 0.5 16.7243 0.5 16.7379C0.5 16.7514 0.5 16.7649 0.5 16.7784C0.5 16.7918 0.5 16.8053 0.5 16.8187C0.5 16.8321 0.5 16.8455 0.5 16.8588C0.5 16.8721 0.5 16.8855 0.5 16.8987C0.5 16.912 0.5 16.9253 0.5 16.9385C0.5 16.9517 0.5 16.9649 0.5 16.978C0.5 16.9912 0.5 17.0043 0.5 17.0174C0.5 17.0305 0.5 17.0436 0.5 17.0566C0.5 17.0696 0.5 17.0827 0.5 17.0956C0.5 17.1086 0.5 17.1215 0.5 17.1344C0.5 17.1474 0.5 17.1602 0.5 17.1731C0.5 17.1859 0.5 17.1987 0.5 17.2115C0.5 17.2243 0.5 17.2371 0.5 17.2498C0.5 17.2625 0.5 17.2752 0.5 17.2879C0.5 17.3005 0.5 17.3132 0.5 17.3258C0.5 17.3384 0.5 17.351 0.5 17.3635C0.5 17.376 0.5 17.3886 0.5 17.401C0.5 17.4135 0.5 17.426 0.5 17.4384C0.5 17.4508 0.5 17.4632 0.5 17.4756C0.5 17.4879 0.5 17.5002 0.5 17.5125C0.5 17.5248 0.5 17.5371 0.5 17.5494C0.5 17.5616 0.5 17.5738 0.5 17.586C0.5 17.5982 0.5 17.6103 0.5 17.6224C0.5 17.6345 0.5 17.6466 0.5 17.6587C0.5 17.6707 0.5 17.6828 0.5 17.6948C0.5 17.7068 0.5 17.7187 0.5 17.7307C0.5 17.7426 0.5 17.7545 0.5 17.7664C0.5 17.7783 0.5 17.7901 0.5 17.802C0.5 17.8138 0.5 17.8256 0.5 17.8373C0.5 17.8491 0.5 17.8608 0.5 17.8725C0.5 17.8842 0.5 17.8959 0.5 17.9075C0.5 17.9192 0.5 17.9308 0.5 17.9424C0.5 17.9539 0.5 17.9655 0.5 17.977C0.5 17.9885 0.5 18 0.5 18.0115C0.5 18.023 0.5 18.0344 0.5 18.0458C0.5 18.0572 0.5 18.0686 0.5 18.0799C0.5 18.0913 0.5 18.1026 0.5 18.1139C0.5 18.1252 0.5 18.1364 0.5 18.1477C0.5 18.1589 0.5 18.1701 0.5 18.1813C0.5 18.1924 0.5 18.2036 0.5 18.2147C0.5 18.2258 0.5 18.2369 0.5 18.248C0.5 18.259 0.5 18.27 0.5 18.281C0.5 18.292 0.5 18.303 0.5 18.3139C0.5 18.3249 0.5 18.3358 0.5 18.3467C0.5 18.3576 0.5 18.3684 0.5 18.3792C0.5 18.3901 0.5 18.4009 0.5 18.4116C0.5 18.4224 0.5 18.4331 0.5 18.4438C0.5 18.4545 0.5 18.4652 0.5 18.4759C0.5 18.4865 0.5 18.4972 0.5 18.5078C0.5 18.5183 0.5 18.5289 0.5 18.5395C0.5 18.55 0.5 18.5605 0.5 18.571C0.5 18.5815 0.5 18.5919 0.5 18.6023C0.5 18.6128 0.5 18.6232 0.5 18.6335C0.5 18.6439 0.5 18.6542 0.5 18.6645C0.5 18.6749 0.5 18.6851 0.5 18.6954C0.5 18.7056 0.5 18.7159 0.5 18.7261C0.5 18.7363 0.5 18.7464 0.5 18.7566C0.5 18.7667 0.5 18.7768 0.5 18.7869C0.5 18.797 0.5 18.8071 0.5 18.8171C0.5 18.8271 0.5 18.8371 0.5 18.8471C0.5 18.8571 0.5 18.867 0.5 18.8769C0.5 18.8869 0.5 18.8968 0.5 18.9066C0.5 18.9165 0.5 18.9263 0.5 18.9361C0.5 18.9459 0.5 18.9557 0.5 18.9655C0.5 18.9752 0.5 18.9849 0.5 18.9946C0.5 19.0043 0.5 19.014 0.5 19.0236C0.5 19.0333 0.5 19.0429 0.5 19.0525C0.5 19.0621 0.5 19.0716 0.5 19.0812C0.5 19.0907 0.5 19.1002 0.5 19.1097C0.5 19.1191 0.5 19.1286 0.5 19.138C0.5 19.1474 0.5 19.1568 0.5 19.1662C0.5 19.1756 0.5 19.1849 0.5 19.1942C0.5 19.2035 0.5 19.2128 0.5 19.2221C0.5 19.2313 0.5 19.2406 0.5 19.2498C0.5 19.259 0.5 19.2681 0.5 19.2773C0.5 19.2864 0.5 19.2956 0.5 19.3047C0.5 19.3137 0.5 19.3228 0.5 19.3319C0.5 19.3409 0.5 19.3499 0.5 19.3589C0.5 19.3679 0.5 19.3768 0.5 19.3858C0.5 19.3947 0.5 19.4036 0.5 19.4125C0.5 19.4214 0.5 19.4302 0.5 19.4391C0.5 19.4479 0.5 19.4567 0.5 19.4655C0.5 19.4742 0.5 19.483 0.5 19.4917C0.5 19.5004 0.5 19.5091 0.5 19.5178C0.5 19.5265 0.5 19.5351 0.5 19.5437C0.5 19.5523 0.5 19.5609 0.5 19.5695C0.5 19.578 0.5 19.5866 0.5 19.5951C0.5 19.6036 0.5 19.6121 0.5 19.6205C0.5 19.629 0.5 19.6374 0.5 19.6458C0.5 19.6542 0.5 19.6626 0.5 19.6709C0.5 19.6793 0.5 19.6876 0.5 19.6959C0.5 19.7042 0.5 19.7125 0.5 19.7207C0.5 19.729 0.5 19.7372 0.5 19.7454C0.5 19.7536 0.5 19.7618 0.5 19.7699C0.5 19.778 0.5 19.7862 0.5 19.7942C0.5 19.8023 0.5 19.8104 0.5 19.8184C0.5 19.8265 0.5 19.8345 0.5 19.8425C0.5 19.8505 0.5 19.8584 0.5 19.8664C0.5 19.8743 0.5 19.8822 0.5 19.8901C0.5 19.898 0.5 19.9058 0.5 19.9137C0.5 19.9215 0.5 19.9293 0.5 19.9371C0.5 19.9449 0.5 19.9526 0.5 19.9604C0.5 19.9681 0.5 19.9758 0.5 19.9835C0.5 19.9911 0.5 19.9988 0.5 20.0064C0.5 20.0141 0.5 20.0217 0.5 20.0292C0.5 20.0368 0.5 20.0444 0.5 20.0519C0.5 20.0594 0.5 20.0669 0.5 20.0744C0.5 20.0819 0.5 20.0893 0.5 20.0968C0.5 20.1042 0.5 20.1116 0.5 20.119C0.5 20.1263 0.5 20.1337 0.5 20.141C0.5 20.1483 0.5 20.1556 0.5 20.1629C0.5 20.1702 0.5 20.1774 0.5 20.1847C0.5 20.1919 0.5 20.1991 0.5 20.2063C0.5 20.2135 0.5 20.2206 0.5 20.2277C0.5 20.2349 0.5 20.242 0.5 20.249C0.5 20.2561 0.5 20.2632 0.5 20.2702C0.5 20.2772 0.5 20.2842 0.5 20.2912C0.5 20.2982 0.5 20.3051 0.5 20.3121C0.5 20.319 0.5 20.3259 0.5 20.3328C0.5 20.3397 0.5 20.3465 0.5 20.3533C0.5 20.3602 0.5 20.367 0.5 20.3738C0.5 20.3805 0.5 20.3873 0.5 20.394C0.5 20.4008 0.5 20.4075 0.5 20.4142C0.5 20.4209 0.5 20.4275 0.5 20.4341C0.5 20.4408 0.5 20.4474 0.5 20.454C0.5 20.4606 0.5 20.4671 0.5 20.4737C0.5 20.4802 0.5 20.4867 0.5 20.4932C0.5 20.4997 0.5 20.5062 0.5 20.5126C0.5 20.5191 0.5 20.5255 0.5 20.5319C0.5 20.5383 0.5 20.5446 0.5 20.551C0.5 20.5573 0.5 20.5637 0.5 20.57C0.5 20.5763 0.5 20.5825 0.5 20.5888C0.5 20.595 0.5 20.6013 0.5 20.6075C0.5 20.6137 0.5 20.6199 0.5 20.626C0.5 20.6322 0.5 20.6383 0.5 20.6444C0.5 20.6505 0.5 20.6566 0.5 20.6627C0.5 20.6687 0.5 20.6748 0.5 20.6808C0.5 20.6868 0.5 20.6928 0.5 20.6988C0.5 20.7047 0.5 20.7107 0.5 20.7166C0.5 20.7225 0.5 20.7284 0.5 20.7343C0.5 20.7402 0.5 20.746 0.5 20.7519C0.5 20.7577 0.5 20.7635 0.5 20.7693C0.5 20.7751 0.5 20.7808 0.5 20.7866C0.5 20.7923 0.5 20.798 0.5 20.8037C0.5 20.8094 0.5 20.8151 0.5 20.8207C0.5 20.8263 0.5 20.832 0.5 20.8376C0.5 20.8432 0.5 20.8487 0.5 20.8543C0.5 20.8598 0.5 20.8654 0.5 20.8709C0.5 20.8764 0.5 20.8819 0.5 20.8873C0.5 20.8928 0.5 20.8982 0.5 20.9036C0.5 20.909 0.5 20.9144 0.5 20.9198C0.5 20.9252 0.5 20.9305 0.5 20.9359C0.5 20.9412 0.5 20.9465 0.5 20.9518C0.5 20.957 0.5 20.9623 0.5 20.9675C0.5 20.9728 0.5 20.978 0.5 20.9832C0.5 20.9883 0.5 20.9935 0.5 20.9987C0.5 21.0038 0.5 21.0089 0.5 21.014C0.5 21.0191 0.5 21.0242 0.5 21.0293C0.5 21.0343 0.5 21.0393 0.5 21.0443C0.5 21.0494 0.5 21.0543 0.5 21.0593C0.5 21.0643 0.5 21.0692 0.5 21.0741C0.5 21.0791 0.5 21.084 0.5 21.0888C0.5 21.0937 0.5 21.0986 0.5 21.1034C0.5 21.1082 0.5 21.1131 0.5 21.1178C0.5 21.1226 0.5 21.1274 0.5 21.1321C0.5 21.1369 0.5 21.1416 0.5 21.1463C0.5 21.151 0.5 21.1557 0.5 21.1604C0.5 21.165 0.5 21.1696 0.5 21.1743C0.5 21.1789 0.5 21.1835 0.5 21.188C0.5 21.1926 0.5 21.1972 0.5 21.2017C0.5 21.2062 0.5 21.2107 0.5 21.2152C0.5 21.2197 0.5 21.2242 0.5 21.2286C0.5 21.233 0.5 21.2375 0.5 21.2419C0.5 21.2463 0.5 21.2506 0.5 21.255C0.5 21.2594 0.5 21.2637 0.5 21.268C0.5 21.2723 0.5 21.2766 0.5 21.2809C0.5 21.2852 0.5 21.2894 0.5 21.2936C0.5 21.2979 0.5 21.3021 0.5 21.3063C0.5 21.3104 0.5 21.3146 0.5 21.3187C0.5 21.3229 0.5 21.327 0.5 21.3311C0.5 21.3352 0.5 21.3393 0.5 21.3434C0.5 21.3474 0.5 21.3515 0.5 21.3555C0.5 21.3595 0.5 21.3635 0.5 21.3675C0.5 21.3714 0.5 21.3754 0.5 21.3793C0.5 21.3833 0.5 21.3872 0.5 21.3911C0.5 21.395 0.5 21.3988 0.5 21.4027C0.5 21.4065 0.5 21.4104 0.5 21.4142C0.5 21.418 0.5 21.4218 0.5 21.4256C0.5 21.4293 0.5 21.4331 0.5 21.4368C0.5 21.4405 0.5 21.4442 0.5 21.4479C0.5 21.4516 0.5 21.4553 0.5 21.4589C0.5 21.4626 0.5 21.4662 0.5 21.4698C0.5 21.4734 0.5 21.477 0.5 21.4806C0.5 21.4841 0.5 21.4877 0.5 21.4912C0.5 21.4947 0.5 21.4982 0.5 21.5017C0.5 21.5052 0.5 21.5087 0.5 21.5121C0.5 21.5156 0.5 21.519 0.5 21.5224C0.5 21.5258 0.5 21.5292 0.5 21.5325C0.5 21.5359 0.5 21.5392 0.5 21.5426C0.5 21.5459 0.5 21.5492 0.5 21.5525C0.5 21.5558 0.5 21.559 0.5 21.5623C0.5 21.5655 0.5 21.5687 0.5 21.5719C0.5 21.5752 0.5 21.5783 0.5 21.5815C0.5 21.5847 0.5 21.5878 0.5 21.5909C0.5 21.5941 0.5 21.5972 0.5 21.6003C0.5 21.6034 0.5 21.6064 0.5 21.6095C0.5 21.6125 0.5 21.6155 0.5 21.6186C0.5 21.6216 0.5 21.6246 0.5 21.6275C0.5 21.6305 0.5 21.6334 0.5 21.6364C0.5 21.6393 0.5 21.6422 0.5 21.6451C0.5 21.648 0.5 21.6509 0.5 21.6537C0.5 21.6566 0.5 21.6594 0.5 21.6622C0.5 21.6651 0.5 21.6678 0.5 21.6706C0.5 21.6734 0.5 21.6762 0.5 21.6789C0.5 21.6816 0.5 21.6844 0.5 21.6871C0.5 21.6898 0.5 21.6924 0.5 21.6951C0.5 21.6978 0.5 21.7004 0.5 21.703C0.5 21.7057 0.5 21.7083 0.5 21.7109C0.5 21.7135 0.5 21.716 0.5 21.7186C0.5 21.7211 0.5 21.7237 0.5 21.7262C0.5 21.7287 0.5 21.7312 0.5 21.7336C0.5 21.7361 0.5 21.7386 0.5 21.741C0.5 21.7435 0.5 21.7459 0.5 21.7483C0.5 21.7507 0.5 21.7531 0.5 21.7554C0.5 21.7578 0.5 21.7601 0.5 21.7625C0.5 21.7648 0.5 21.7671 0.5 21.7694C0.5 21.7717 0.5 21.7739 0.5 21.7762C0.5 21.7785 0.5 21.7807 0.5 21.7829C0.5 21.7851 0.5 21.7873 0.5 21.7895C0.5 21.7917 0.5 21.7938 0.5 21.796C0.5 21.7981 0.5 21.8003 0.5 21.8024C0.5 21.8045 0.5 21.8066 0.5 21.8086C0.5 21.8107 0.5 21.8128 0.5 21.8148C0.5 21.8168 0.5 21.8189 0.5 21.8209C0.5 21.8229 0.5 21.8248 0.5 21.8268C0.5 21.8288 0.5 21.8307 0.5 21.8326C0.5 21.8346 0.5 21.8365 0.5 21.8384C0.5 21.8403 0.5 21.8421 0.5 21.844C0.5 21.8459 0.5 21.8477 0.5 21.8495C0.5 21.8513 0.5 21.8531 0.5 21.8549C0.5 21.8567 0.5 21.8585 0.5 21.8602C0.5 21.862 0.5 21.8637 0.5 21.8654C0.5 21.8672 0.5 21.8689 0.5 21.8705C0.5 21.8722 0.5 21.8739 0.5 21.8755C0.5 21.8772 0.5 21.8788 0.5 21.8804C0.5 21.882 0.5 21.8836 0.5 21.8852C0.5 21.8868 0.5 21.8884 0.5 21.8899C0.5 21.8914 0.5 21.893 0.5 21.8945C0.5 21.896 0.5 21.8975 0.5 21.899C0.5 21.9004 0.5 21.9019 0.5 21.9033C0.5 21.9048 0.5 21.9062 0.5 21.9076C0.5 21.909 0.5 21.9104 0.5 21.9118C0.5 21.9132 0.5 21.9145 0.5 21.9158C0.5 21.9172 0.5 21.9185 0.5 21.9198C0.5 21.9211 0.5 21.9224 0.5 21.9237C0.5 21.925 0.5 21.9262 0.5 21.9275C0.5 21.9287 0.5 21.9299 0.5 21.9311C0.5 21.9323 0.5 21.9335 0.5 21.9347C0.5 21.9359 0.5 21.937 0.5 21.9382C0.5 21.9393 0.5 21.9404 0.5 21.9415C0.5 21.9426 0.5 21.9437 0.5 21.9448C0.5 21.9459 0.5 21.9469 0.5 21.948C0.5 21.949 0.5 21.9501 0.5 21.9511C0.5 21.9521 0.5 21.9531 0.5 21.954C0.5 21.955 0.5 21.956 0.5 21.9569C0.5 21.9579 0.5 21.9588 0.5 21.9597C0.5 21.9606 0.5 21.9615 0.5 21.9624C0.5 21.9633 0.5 21.9641 0.5 21.965C0.5 21.9658 0.5 21.9667 0.5 21.9675C0.5 21.9683 0.5 21.9691 0.5 21.9699C0.5 21.9707 0.5 21.9714 0.5 21.9722C0.5 21.973 0.5 21.9737 0.5 21.9744C0.5 21.9751 0.5 21.9758 0.5 21.9765C0.5 21.9772 0.5 21.9779 0.5 21.9786C0.5 21.9792 0.5 21.9799 0.5 21.9805C0.5 21.9811 0.5 21.9817 0.5 21.9823C0.5 21.9829 0.5 21.9835 0.5 21.9841C0.5 21.9846 0.5 21.9852 0.5 21.9857C0.5 21.9863 0.5 21.9868 0.5 21.9873C0.5 21.9878 0.5 21.9883 0.5 21.9887C0.5 21.9892 0.5 21.9897 0.5 21.9901C0.5 21.9906 0.5 21.991 0.5 21.9914C0.5 21.9918 0.5 21.9922 0.5 21.9926C0.5 21.993 0.5 21.9934 0.5 21.9937C0.5 21.9941 0.5 21.9944 0.5 21.9947C0.5 21.995 0.5 21.9953 0.5 21.9956C0.5 21.9959 0.5 21.9962 0.5 21.9965C0.5 21.9967 0.5 21.997 0.5 21.9972C0.5 21.9974 0.5 21.9977 0.5 21.9979C0.5 21.9981 0.5 21.9983 0.5 21.9984C0.5 21.9986 0.5 21.9988 0.5 21.9989C0.5 21.9991 0.5 21.9992 0.5 21.9993C0.5 21.9994 0.5 21.9995 0.5 21.9996C0.5 21.9997 0.5 21.9998 0.5 21.9998C0.5 21.9999 0.5 21.9999 0.5 22C0.5 22 0.5 22 3 22ZM22.894 19.5H3V24.5H22.894V19.5ZM20.394 3V22H25.394V3H20.394ZM20.394 22V40H25.394V22H20.394ZM21.3222 4.94408L44.8222 23.9441L47.9658 20.0559L24.4658 1.05592L21.3222 4.94408ZM44.8738 20.0153L21.3738 38.0153L24.4142 41.9847L47.9142 23.9847L44.8738 20.0153ZM44.2708 4.31984L67.2708 41.3198L71.5172 38.6802L48.5172 1.68016L44.2708 4.31984ZM71.894 40V3H66.894V40H71.894ZM43.894 3V22H48.894V3H43.894ZM43.894 22V40H48.894V22H43.894Z" fill="white"/>
</svg>
